<svg width="284" height="114" viewBox="0 0 284 114" fill="none" xmlns="http://www.w3.org/2000/svg">
<path d="M179.368 0C188.821 4.09308e-05 196.799 3.62263 202.265 10.0781C207.616 16.399 210.036 24.7971 209.889 33.6221L209.888 33.6729L209.886 33.7236L209.851 34.6328C209.403 44.0257 206.409 53.4854 199.86 63.5811C192.379 75.115 182.199 85.0257 170.536 92.8467C176.344 96.3995 183.885 98.5107 193.456 98.5107C227.32 98.5107 256.588 71.3745 264.129 30.791C265.62 22.7683 267.398 15.8061 268.253 8.55762C268.734 4.47495 272.435 1.55501 276.518 2.03613C280.6 2.51754 283.52 6.21797 283.039 10.3008C282.115 18.1394 280.019 26.7728 278.767 33.5107C270.245 79.3749 236.156 113.399 193.456 113.399C178.318 113.399 165.767 109.051 156.463 100.929C141.288 108.308 124.645 112.406 108.64 112.406C96.3381 112.406 86.5202 108.914 80.3682 101.545C74.3257 94.3067 73.1297 84.8889 74.5332 75.7773C74.5486 75.6084 74.5675 75.4386 74.5947 75.2686C76.6965 62.1323 79.458 49.9304 80.6758 37.5518C81.2923 30.5152 79.6671 25.4476 77.0244 22.2607C74.4779 19.1901 70.1831 16.8887 63.2764 16.8887C53.8921 16.8887 44.5104 21.9337 36.3301 33.1885C28.0977 44.5151 21.4957 61.6822 18.1924 84.2324C18.1909 84.2426 18.1881 84.2525 18.1865 84.2627C17.0947 91.7159 15.9735 99.1739 14.7988 106.633C14.159 110.694 10.3481 113.468 6.28711 112.828C2.22609 112.189 -0.547503 108.377 0.0917969 104.316C5.06329 72.7474 8.97113 42.1406 13.7305 10.3281C14.3389 6.26229 18.1284 3.45916 22.1943 4.06738C26.2602 4.67579 29.0633 8.46532 28.4551 12.5312C28.0523 15.2237 27.6541 17.9178 27.2598 20.6133C36.9863 8.95669 49.312 2 63.2764 2C73.7387 2.00008 82.5952 5.65414 88.4854 12.7568C94.2764 19.7402 96.3727 29.0579 95.5059 38.8828L95.502 38.9189L95.499 38.9551L95.375 40.1689C94.0528 52.6512 91.172 65.9621 89.334 77.3857C89.319 77.5402 89.3012 77.6953 89.2764 77.8506C88.2077 84.5333 89.408 89.1411 91.7969 92.0029C94.138 94.8073 98.9473 97.5186 108.64 97.5186C121.293 97.5185 134.469 94.4911 146.699 89.0547C141.226 79.6694 138.674 68.3134 138.674 56.0791C138.674 41.2011 142.584 27.5195 149.518 17.3359C156.468 7.12829 166.853 8.40207e-05 179.368 0ZM179.368 14.8877C173.025 14.8878 166.785 18.4295 161.824 25.7148C156.847 33.0249 153.562 43.6622 153.562 56.0791C153.562 66.5913 155.803 75.336 159.852 82.0352C170.899 75.0686 180.527 66.0269 187.369 55.4785C192.793 47.1171 194.788 40.0068 195.002 33.3418C195.096 27.2952 193.423 22.6769 190.901 19.6982C188.489 16.8489 184.803 14.8877 179.368 14.8877Z" fill="black"/>
</svg>
