<svg xmlns="http://www.w3.org/2000/svg" version="1.1" xmlns:xlink="http://www.w3.org/1999/xlink" width="1000" height="1000"><g clip-path="url(#SvgjsClipPath1057)"><rect width="1000" height="1000" fill="#fbfbfb"></rect><g transform="matrix(1.5625,0,0,1.5625,100,100)"><svg xmlns="http://www.w3.org/2000/svg" version="1.1" xmlns:xlink="http://www.w3.org/1999/xlink" width="512" height="512"><svg width="512" height="512" viewBox="0 0 512 512" fill="none" xmlns="http://www.w3.org/2000/svg">
<rect width="512" height="512" rx="60" fill="#FBFBFB"></rect>
<path d="M301.789 186.223C313.372 186.223 323.148 190.662 329.846 198.572C336.403 206.317 339.368 216.608 339.188 227.422L339.187 227.484L339.184 227.546L339.141 228.66C338.592 240.17 334.924 251.761 326.899 264.132C317.732 278.265 305.258 290.409 290.966 299.993C298.083 304.346 307.324 306.933 319.052 306.933C360.547 306.933 396.41 273.682 405.651 223.952C407.478 214.122 409.656 205.591 410.704 196.709C411.294 191.706 415.829 188.128 420.832 188.718C425.834 189.308 429.412 193.842 428.822 198.845C427.69 208.45 425.122 219.029 423.588 227.285C413.145 283.485 371.374 325.176 319.052 325.176C300.502 325.176 285.123 319.849 273.722 309.896C255.127 318.938 234.734 323.96 215.122 323.96C200.048 323.96 188.018 319.681 180.479 310.651C173.075 301.782 171.609 290.241 173.329 279.077C173.348 278.87 173.371 278.661 173.405 278.453C175.98 262.357 179.364 247.405 180.856 232.237C181.611 223.615 179.62 217.405 176.382 213.5C173.261 209.737 167.999 206.917 159.536 206.917C148.037 206.917 136.541 213.099 126.517 226.89C116.429 240.769 108.34 261.805 104.292 289.437C104.29 289.449 104.287 289.462 104.285 289.474C102.947 298.607 101.573 307.746 100.134 316.886C99.3496 321.862 94.6799 325.261 89.7037 324.477C84.7276 323.694 81.3289 319.023 82.1123 314.046C88.2041 275.364 92.9926 237.86 98.8245 198.878C99.57 193.896 104.213 190.461 109.196 191.207C114.178 191.952 117.613 196.596 116.867 201.578C116.374 204.877 115.886 208.178 115.403 211.481C127.321 197.198 142.424 188.673 159.536 188.673C172.356 188.673 183.208 193.151 190.426 201.854C197.522 210.411 200.09 221.829 199.028 233.868L199.023 233.912L199.02 233.956L198.868 235.444C197.248 250.739 193.718 267.049 191.465 281.047C191.447 281.237 191.425 281.427 191.395 281.617C190.085 289.806 191.556 295.452 194.483 298.959C197.352 302.395 203.245 305.717 215.122 305.717C230.626 305.717 246.772 302.008 261.758 295.346C255.051 283.846 251.924 269.931 251.924 254.939C251.924 236.709 256.715 219.944 265.212 207.465C273.728 194.957 286.453 186.223 301.789 186.223ZM301.789 204.465C294.016 204.465 286.37 208.805 280.291 217.732C274.193 226.69 270.167 239.724 270.167 254.939C270.167 267.82 272.913 278.536 277.875 286.745C291.411 278.208 303.209 267.129 311.593 254.203C318.239 243.958 320.684 235.245 320.946 227.078C321.061 219.669 319.011 214.01 315.921 210.36C312.965 206.868 308.449 204.465 301.789 204.465Z" fill="black"></path>
</svg></svg></g></g><defs><clipPath id="SvgjsClipPath1057"><rect width="1000" height="1000" x="0" y="0" rx="350" ry="350"></rect></clipPath></defs></svg>